<svg xmlns="http://www.w3.org/2000/svg" viewBox="0 0 497.79 135.8"><defs><style>.cls-1{fill:#fff;}</style></defs><title>canvasahs_whitex</title><g id="HULPLIJNEN"><g id="_Group_" data-name="&lt;Group&gt;"><g id="_Group_2" data-name="&lt;Group&gt;"><path id="_Compound_Path_" data-name="&lt;Compound Path&gt;" class="cls-1" d="M136.22,120.44h-4.28a.77.77,0,0,1-.76-.77v-.61a8.42,8.42,0,0,1-5.31,1.72c-3.33,0-6.54-1.6-6.54-6.57v-.34c0-4.47,2.87-6.46,9.4-6.46h2.07V106c0-2.17-1.07-2.63-2.87-2.63-2.45,0-5.16.15-6.34.26h-.19a.62.62,0,0,1-.69-.68v-3.1a.86.86,0,0,1,.72-.84,31.11,31.11,0,0,1,6.61-.8c5.51,0,8.94,2.21,8.94,7.79v13.64A.77.77,0,0,1,136.22,120.44Zm-5.31-9.36h-2.18c-2.67,0-3.36.91-3.36,2.79v.34c0,1.6.8,1.91,2.41,1.91a7.07,7.07,0,0,0,3.13-.84Z"/><path id="_Compound_Path_2" data-name="&lt;Compound Path&gt;" class="cls-1" d="M153.76,103.36h-.31a10.25,10.25,0,0,0-4.93,1.34v14.93a.8.8,0,0,1-.76.81h-4.62a.84.84,0,0,1-.81-.81V99.31a.78.78,0,0,1,.77-.77h4.54a.78.78,0,0,1,.77.77v.76a8.19,8.19,0,0,1,5.16-1.83.76.76,0,0,1,.76.76v3.63C154.33,103,154.1,103.36,153.76,103.36Z"/><path id="_Compound_Path_3" data-name="&lt;Compound Path&gt;" class="cls-1" d="M170.66,120.48a16.51,16.51,0,0,1-3,.3c-4.21,0-6.42-1.11-6.42-6.53V103.17l-3.06-.5a.89.89,0,0,1-.8-.8V99.35a.84.84,0,0,1,.8-.81h3.06V95.41a.81.81,0,0,1,.76-.76l4.66-.8h.12a.64.64,0,0,1,.68.64v4.05h3.14a.77.77,0,0,1,.76.77v3.09a.77.77,0,0,1-.76.77h-3.14v11.12c0,1.52.12,1.79,1.26,1.79h1.88c.49,0,.8.23.8.65v3A.79.79,0,0,1,170.66,120.48Z"/><path id="_Compound_Path_4" data-name="&lt;Compound Path&gt;" class="cls-1" d="M193.36,111.42H181.17v.08c0,2.17.92,4.16,3.94,4.16,2.4,0,5.8-.19,7.33-.34h.12c.42,0,.72.19.72.61v2.9c0,.61-.15.88-.8,1a28.86,28.86,0,0,1-7.83.92c-4.63,0-9.59-2.44-9.59-9.82v-2.67c0-6.15,3.59-10.05,9.66-10.05,6.27,0,9.44,4.28,9.44,10.05v2.21C194.16,111.08,193.85,111.42,193.36,111.42Zm-5.24-4c0-2.83-1.3-4.24-3.44-4.24s-3.51,1.45-3.51,4.24v.15h7Z"/><path id="_Compound_Path_5" data-name="&lt;Compound Path&gt;" class="cls-1" d="M217.56,99.42l-4.81,17.35c-1,3.4-3.29,4-5.54,4s-4.55-.61-5.5-4l-4.78-17.35a.45.45,0,0,1,0-.23.62.62,0,0,1,.61-.65h5.05c.38,0,.68.35.8.81l3.28,15c.12.58.31.81.58.81s.49-.23.61-.81l3.28-15c.12-.46.42-.81.81-.81h5a.65.65,0,0,1,.65.65A.45.45,0,0,1,217.56,99.42Z"/><path id="_Compound_Path_6" data-name="&lt;Compound Path&gt;" class="cls-1" d="M238.59,111.42H226.41v.08c0,2.17.91,4.16,3.93,4.16,2.41,0,5.81-.19,7.34-.34h.11c.42,0,.73.19.73.61v2.9c0,.61-.15.88-.8,1a28.88,28.88,0,0,1-7.84.92c-4.62,0-9.59-2.44-9.59-9.82v-2.67c0-6.15,3.59-10.05,9.67-10.05,6.27,0,9.44,4.28,9.44,10.05v2.21C239.4,111.08,239.09,111.42,238.59,111.42Zm-5.23-4c0-2.83-1.3-4.24-3.44-4.24s-3.51,1.45-3.51,4.24v.15h7Z"/><path id="_Compound_Path_7" data-name="&lt;Compound Path&gt;" class="cls-1" d="M249.6,120.44h-4.66a.84.84,0,0,1-.81-.81V91.9a.81.81,0,0,1,.81-.77h4.66a.74.74,0,0,1,.72.77v27.73A.76.76,0,0,1,249.6,120.44Z"/><path id="_Compound_Path_8" data-name="&lt;Compound Path&gt;" class="cls-1" d="M272.67,119.79a36.08,36.08,0,0,1-8.13,1c-6.19,0-9.59-3.59-9.59-9.78v-3c0-6,3.13-9.78,9.59-9.78a25.27,25.27,0,0,1,3.13.27V91.9a.77.77,0,0,1,.76-.77h4.63a.8.8,0,0,1,.8.77v26.78C273.86,119.29,273.71,119.56,272.67,119.79Zm-5-16.24a27.53,27.53,0,0,0-3.13-.19c-2.72,0-3.4,2-3.4,4.66v3c0,2.71.68,4.7,3.4,4.7a20.42,20.42,0,0,0,3.13-.23Z"/><path id="_Compound_Path_9" data-name="&lt;Compound Path&gt;" class="cls-1" d="M296.94,111.42H284.75v.08c0,2.17.91,4.16,3.93,4.16,2.41,0,5.81-.19,7.34-.34h.11c.42,0,.73.19.73.61v2.9c0,.61-.15.88-.8,1a28.88,28.88,0,0,1-7.84.92c-4.62,0-9.59-2.44-9.59-9.82v-2.67c0-6.15,3.6-10.05,9.67-10.05,6.27,0,9.44,4.28,9.44,10.05v2.21C297.74,111.08,297.43,111.42,296.94,111.42Zm-5.24-4c0-2.83-1.3-4.24-3.44-4.24s-3.51,1.45-3.51,4.24v.15h6.95Z"/></g><g id="_Group_3" data-name="&lt;Group&gt;"><path id="_Compound_Path_10" data-name="&lt;Compound Path&gt;" class="cls-1" d="M320,120.44h-1.84a.77.77,0,0,1-.76-.77V107.1c0-3.82-1.61-5-4.09-5a14.72,14.72,0,0,0-5.27,1.07v16.5a.8.8,0,0,1-.77.77h-1.87a.77.77,0,0,1-.73-.77V92.47a.73.73,0,0,1,.73-.76h1.91a.73.73,0,0,1,.73.76v7.87a16,16,0,0,1,5.84-1.18c4.05,0,6.88,2.33,6.88,7.94v12.57A.77.77,0,0,1,320,120.44Z"/><path id="_Compound_Path_11" data-name="&lt;Compound Path&gt;" class="cls-1" d="M333.63,120.71c-5.62,0-8.48-3.71-8.48-9.33v-2.9c0-5.62,2.86-9.32,8.48-9.32s8.52,3.7,8.52,9.32v2.9C342.15,117,339.25,120.71,333.63,120.71Zm5.16-12.23c0-3.9-1.57-6.38-5.16-6.38s-5.12,2.44-5.12,6.38v2.9c0,3.9,1.53,6.38,5.12,6.38s5.16-2.44,5.16-6.38Z"/><path id="_Compound_Path_12" data-name="&lt;Compound Path&gt;" class="cls-1" d="M363.45,102l-1.37.27a5.36,5.36,0,0,1,1.3,3.94v.3c0,4.2-2.6,6.54-8.48,6.54a11,11,0,0,1-4.44-.77,1.41,1.41,0,0,0-.95,1.3c0,.65.31,1,1.18,1.22l5.7,1.45c3.74,1,7.33,2,7.33,5.62v.31c0,3.66-2.44,5.92-8.71,5.92-6,0-8.79-2.33-8.79-6.08v-.34a6.18,6.18,0,0,1,2.41-4.85l-.27-.12a3.14,3.14,0,0,1-1.76-3v0a3.16,3.16,0,0,1,1.57-2.75,5.62,5.62,0,0,1-1.76-4.43v-.3c0-3.4,1.91-6.77,8.49-6.77h8.36a.89.89,0,0,1,.88.84v1C364.14,101.75,363.88,101.91,363.45,102Zm-3.09,19.87c0-1.49-1.22-2.1-4.66-3l-4.32-1.11a4.56,4.56,0,0,0-1.87,3.9V122c0,2.14,1.26,3.48,5.5,3.48s5.35-1.22,5.35-3.32Zm-.31-15.66c0-2.3-1-4.09-5.15-4.09-4.28,0-5.16,2-5.16,4.09v.3c0,1.68.76,3.9,5.16,3.9,4.12,0,5.15-1.61,5.15-3.9Z"/><path id="_Compound_Path_13" data-name="&lt;Compound Path&gt;" class="cls-1" d="M383.59,111h-12.8v.54c0,4.54,1.8,6.22,5.31,6.22a51.88,51.88,0,0,0,6.8-.42h.19a.54.54,0,0,1,.61.54v1.3c0,.49-.15.76-.76.88a34.69,34.69,0,0,1-6.84.65c-4.39,0-8.67-2.07-8.67-9.17V108.1c0-5.47,3-8.94,8.48-8.94s8.41,3.51,8.41,8.94v2.06C384.32,110.66,384.05,111,383.59,111Zm-2.68-2.9c0-4.32-1.64-6-5-6s-5.12,1.87-5.12,6v.34h10.12Z"/><path id="_Compound_Path_14" data-name="&lt;Compound Path&gt;" class="cls-1" d="M395.05,120.71a29.68,29.68,0,0,1-6-.58c-.49-.11-.8-.34-.8-.76V118a.62.62,0,0,1,.69-.57h.15c1.84.23,4.63.42,6,.42,2.48,0,3.78-.65,3.78-2.72,0-1.14-.68-1.87-2.86-3.17l-3.86-2.29c-2.33-1.41-3.9-3.06-3.9-5.46,0-4,3-5.08,6.92-5.08a36.48,36.48,0,0,1,6,.49.74.74,0,0,1,.72.77v1.26a.58.58,0,0,1-.65.65h-.11c-1.34-.12-3.78-.31-5.92-.31s-3.56.27-3.56,2.22c0,1.14.88,1.87,2.64,2.9L398,109.4c3.17,1.87,4.21,3.51,4.21,5.76C402.2,119.06,399.33,120.71,395.05,120.71Z"/><path id="_Compound_Path_15" data-name="&lt;Compound Path&gt;" class="cls-1" d="M418.93,120.28a27.54,27.54,0,0,1-4.78.43c-5.19,0-8.13-3.67-8.13-9.29v-3c0-5.62,2.9-9.28,8.13-9.28a28,28,0,0,1,4.78.42c.61.11.76.3.76.84v1.37a.59.59,0,0,1-.65.58h-.15a35.61,35.61,0,0,0-4.74-.27c-3,0-4.77,2-4.77,6.34v3c0,4.28,1.68,6.34,4.77,6.34a37.44,37.44,0,0,0,4.74-.26H419a.58.58,0,0,1,.65.57v1.37C419.69,119.94,419.54,120.17,418.93,120.28Z"/><path id="_Compound_Path_16" data-name="&lt;Compound Path&gt;" class="cls-1" d="M439.29,120.44h-1.83a.77.77,0,0,1-.76-.77V107.1c0-3.82-1.61-5-4.09-5a14.68,14.68,0,0,0-5.27,1.07v16.5a.8.8,0,0,1-.77.77H424.7a.77.77,0,0,1-.73-.77V92.47a.73.73,0,0,1,.73-.76h1.91a.73.73,0,0,1,.73.76v7.87a16,16,0,0,1,5.84-1.18c4.05,0,6.88,2.33,6.88,7.94v12.57A.78.78,0,0,1,439.29,120.44Z"/><path id="_Compound_Path_17" data-name="&lt;Compound Path&gt;" class="cls-1" d="M452.56,120.71c-5.61,0-8.48-3.71-8.48-9.33v-2.9c0-5.62,2.87-9.32,8.48-9.32s8.52,3.7,8.52,9.32v2.9C461.08,117,458.18,120.71,452.56,120.71Zm5.16-12.23c0-3.9-1.57-6.38-5.16-6.38s-5.12,2.44-5.12,6.38v2.9c0,3.9,1.53,6.38,5.12,6.38s5.16-2.44,5.16-6.38Z"/><path id="_Compound_Path_18" data-name="&lt;Compound Path&gt;" class="cls-1" d="M473.3,120.71c-5.62,0-8.48-3.71-8.48-9.33v-2.9c0-5.62,2.86-9.32,8.48-9.32s8.52,3.7,8.52,9.32v2.9C481.82,117,478.92,120.71,473.3,120.71Zm5.16-12.23c0-3.9-1.57-6.38-5.16-6.38s-5.12,2.44-5.12,6.38v2.9c0,3.9,1.53,6.38,5.12,6.38s5.16-2.44,5.16-6.38Z"/><path id="_Compound_Path_19" data-name="&lt;Compound Path&gt;" class="cls-1" d="M488.44,120.44h-2a.74.74,0,0,1-.69-.77V92.43a.69.69,0,0,1,.69-.72h2a.69.69,0,0,1,.69.72v27.24A.73.73,0,0,1,488.44,120.44Z"/></g></g><g id="_Group_4" data-name="&lt;Group&gt;"><path class="cls-1" d="M180.49,78.83a53.28,53.28,0,0,1-14,1.59c-14.28,0-27.8-7.51-27.8-29.87V38.72c0-22.36,13.52-29.78,27.8-29.78a53.15,53.15,0,0,1,14,1.6c1.31.37,2.06.75,2.06,2.06v9.12a1.65,1.65,0,0,1-1.78,1.87h-.28c-3.57-.28-8.74-.75-13.9-.75-6.49,0-11.65,3.39-11.65,15.88V50.55c0,12.5,5.16,15.88,11.65,15.88,5.16,0,10.33-.47,13.9-.75h.28a1.66,1.66,0,0,1,1.78,1.88v9.11C182.55,78,181.8,78.45,180.49,78.83Z"/><path class="cls-1" d="M245.86,79.58H232.71a2,2,0,0,1-1.88-1.69l-3.38-15.41H208.19l-3.38,15.41a2,2,0,0,1-1.88,1.69H189.78a1.45,1.45,0,0,1-1.59-1.5c0-.1.09-.29.09-.47l14-58.24c2.16-9,9.11-10.43,15.59-10.43s13.34,1.41,15.5,10.43l14,58.24a4.56,4.56,0,0,0,.1.47A1.46,1.46,0,0,1,245.86,79.58ZM219.09,23.69c-.19-.94-.38-1.41-1.22-1.41s-1.13.47-1.32,1.41l-5.73,25.92h14Z"/><path class="cls-1" d="M307.47,79.58h-9.2c-2,0-3.38-.38-4.88-2.91L272,39.66c-.38-.57-.57-.75-.85-.75s-.47.18-.47.75v38a1.88,1.88,0,0,1-1.88,1.88H257.69a1.89,1.89,0,0,1-1.88-1.88V13.36a3.57,3.57,0,0,1,3.57-3.57h9.49c1.88,0,2.82.94,3.94,2.91l22.27,38.7c.37.56.47.75.75.75s.47-.19.47-.84V11.57a1.8,1.8,0,0,1,1.88-1.78h11.08a1.81,1.81,0,0,1,1.88,1.78V76A3.65,3.65,0,0,1,307.47,79.58Z"/><path class="cls-1" d="M377.45,11.76,363.45,70c-2.16,9-9,10.42-15.5,10.42S334.52,79,332.36,70l-14-58.24c0-.19-.1-.28-.1-.47A1.59,1.59,0,0,1,320,9.79H333a2,2,0,0,1,1.88,1.69l11.74,54.2c.19,1,.47,1.41,1.31,1.41s1.13-.38,1.32-1.41L361,11.48a1.91,1.91,0,0,1,1.79-1.69H376a1.45,1.45,0,0,1,1.59,1.5A4,4,0,0,0,377.45,11.76Z"/><path class="cls-1" d="M434.37,79.58H421.22a2,2,0,0,1-1.88-1.69L416,62.48H396.7l-3.38,15.41a2,2,0,0,1-1.88,1.69H378.29a1.46,1.46,0,0,1-1.6-1.5,4.56,4.56,0,0,0,.1-.47l14-58.24c2.16-9,9.11-10.43,15.6-10.43s13.33,1.41,15.49,10.43l14,58.24c0,.18.09.37.09.47A1.45,1.45,0,0,1,434.37,79.58ZM407.6,23.69c-.19-.94-.38-1.41-1.22-1.41s-1.13.47-1.32,1.41l-5.73,25.92h14Z"/><path class="cls-1" d="M463.39,80.42a69.93,69.93,0,0,1-17.76-2.06c-.93-.28-1.87-.85-1.87-1.88V67.27a1.56,1.56,0,0,1,1.69-1.78h.28c3.85.37,14.18,1.13,17.85,1.13,6.48,0,8.36-2.07,8.36-6.58,0-2.72-1.32-4.23-6.2-7.14l-13-7.7C444,40,441.69,34.12,441.69,27.26c0-10.33,5.82-18.32,24.05-18.32A103.6,103.6,0,0,1,485.65,11a1.65,1.65,0,0,1,1.41,1.69v9.49a1.43,1.43,0,0,1-1.6,1.59h-.19c-2.63-.19-13.52-1-19.91-1-5.35,0-7.33,1.6-7.33,5,0,2.63,1.22,3.85,6.3,6.57l12,6.48C486.12,46,489,52.24,489,59.85,489,69.81,482.46,80.42,463.39,80.42Z"/></g><path class="cls-1" d="M118.22,48.93a15.89,15.89,0,0,0,0,31.57A63.79,63.79,0,0,0,118.22,48.93ZM91.34,15.84a15.91,15.91,0,0,0,22.33,22.34A63.46,63.46,0,0,0,91.34,15.84ZM80.6,11.54a63.21,63.21,0,0,0-31.58,0,15.91,15.91,0,0,0,31.58,0ZM16,38.28a16,16,0,0,0,22.27-2.62c5.39-6.73,3.79-15.68,0-19.75A63.23,63.23,0,0,0,16,38.28Zm22.34,75.29A15.93,15.93,0,0,0,15.93,91.22c.7,1.1,1.37,2.24,2.11,3.33a64,64,0,0,0,10.61,12A60.79,60.79,0,0,0,38.31,113.57Zm53.06,0A62.79,62.79,0,0,0,113.7,91.27a15.93,15.93,0,0,0-21.93,2.19C86.44,99.62,87.08,108.62,91.37,113.61ZM86,48.5a5,5,0,1,0-4.94-5A4.94,4.94,0,0,0,86,48.5ZM59.8,34.74A5,5,0,1,0,65,29.85,5,5,0,0,0,59.8,34.74ZM91.05,86a5,5,0,0,0-4.94-5,5,5,0,1,0,4.94,5ZM35,69.68a5,5,0,1,0-5-4.93A4.89,4.89,0,0,0,35,69.68ZM48.62,85.93a5,5,0,1,0-5,5A5,5,0,0,0,48.62,85.93ZM94.87,69.68a5,5,0,1,0,0-10,5,5,0,1,0,0,10ZM59.8,94.9a4.93,4.93,0,0,0,5.06,4.94,5,5,0,0,0-.13-10A4.9,4.9,0,0,0,59.8,94.9ZM38.62,43.58a4.93,4.93,0,0,0,5,5,5,5,0,0,0,0-10A5,5,0,0,0,38.62,43.58Z"/><path class="cls-1" d="M9.46,62.66A3,3,0,0,0,9.65,62a51.68,51.68,0,0,1,.7-7c.33-1.92.77-3.82,1.15-5.73,0-.08.05-.17.07-.24,5.47.22,12.81,5.16,13.9,13.66a15.91,15.91,0,0,1-13.88,17.9c-.2-.81-.41-1.63-.58-2.45a55.44,55.44,0,0,1-1.13-7.58q-.11-1.61-.24-3.21a1.38,1.38,0,0,0-.18-.46Z"/><path class="cls-1" d="M62.61,120.26a2.69,2.69,0,0,0-.54-.14c-1.48-.13-3-.24-4.42-.38a57,57,0,0,1-8-1.4l-.64-.17a15.91,15.91,0,0,1,31.59,0c-.77.18-1.55.38-2.33.55a55.3,55.3,0,0,1-7.57,1.13l-3.41.26a1.22,1.22,0,0,0-.36.14Z"/><path class="cls-1" d="M118.22,48.93a63.79,63.79,0,0,1,0,31.57,15.89,15.89,0,0,1,0-31.57Z"/><path class="cls-1" d="M91.34,15.84a63.46,63.46,0,0,1,22.33,22.34A15.91,15.91,0,0,1,91.34,15.84Z"/><path class="cls-1" d="M80.6,11.54a15.91,15.91,0,0,1-31.58,0A63.21,63.21,0,0,1,80.6,11.54Z"/><path class="cls-1" d="M16,38.28a63.23,63.23,0,0,1,22.3-22.37c3.76,4.07,5.36,13,0,19.75A16,16,0,0,1,16,38.28Z"/><path class="cls-1" d="M38.31,113.57a60.79,60.79,0,0,1-9.66-7A64,64,0,0,1,18,94.55c-.74-1.09-1.41-2.23-2.11-3.33a15.93,15.93,0,0,1,22.38,22.35Z"/><path class="cls-1" d="M91.37,113.61c-4.29-5-4.93-14,.4-20.15a15.93,15.93,0,0,1,21.93-2.19,62.79,62.79,0,0,1-22.33,22.34Z"/><path class="cls-1" d="M86,48.5a5,5,0,1,1,5-4.94A5,5,0,0,1,86,48.5Z"/><path class="cls-1" d="M59.8,34.74a5,5,0,0,1,10,.14,5,5,0,1,1-10-.14Z"/><path class="cls-1" d="M91.05,86a5,5,0,0,1-5,5,5,5,0,1,1,.07-10A5,5,0,0,1,91.05,86Z"/><path class="cls-1" d="M35,69.68a5,5,0,1,1,0-10,5,5,0,0,1,0,10Z"/><path class="cls-1" d="M48.62,85.93a5,5,0,0,1-10-.06,5,5,0,0,1,10,.06Z"/><path class="cls-1" d="M94.87,69.68a5,5,0,1,1,5-5A4.86,4.86,0,0,1,94.87,69.68Z"/><path class="cls-1" d="M59.8,94.9a4.9,4.9,0,0,1,4.93-5.06,5,5,0,0,1,.13,10A4.93,4.93,0,0,1,59.8,94.9Z"/><path class="cls-1" d="M38.62,43.58a5,5,0,0,1,5-5,5,5,0,0,1,0,10A4.93,4.93,0,0,1,38.62,43.58Z"/></g></svg>